<?xml version="1.0" encoding="iso-8859-1"?>
<!-- Generator: Adobe Illustrator 18.0.0, SVG Export Plug-In . SVG Version: 6.00 Build 0)  -->
<!DOCTYPE svg PUBLIC "-//W3C//DTD SVG 1.1//EN" "http://www.w3.org/Graphics/SVG/1.1/DTD/svg11.dtd">
<svg version="1.1" id="Capa_1" xmlns="http://www.w3.org/2000/svg" xmlns:xlink="http://www.w3.org/1999/xlink" x="0px" y="0px"
	 viewBox="0 0 417.479 417.479" style="enable-background:new 0 0 417.479 417.479;" xml:space="preserve">
<g>
	<path d="M208.74,0C93.641,0,0,93.64,0,208.74s93.641,208.74,208.74,208.74s208.739-93.64,208.739-208.74S323.84,0,208.74,0z
		 M208.74,403.479C101.36,403.479,14,316.12,14,208.74S101.36,14,208.74,14s194.739,87.36,194.739,194.74
		S316.12,403.479,208.74,403.479z"/>
	<path d="M373.827,156.375c-2.457-5.037-4.778-9.794-6.775-14.516c-2.126-5.027-3.998-10.275-5.979-15.832
		c-5.715-16.026-11.625-32.599-24.322-45.297c-12.698-12.698-29.271-18.608-45.296-24.323c-5.557-1.981-10.806-3.853-15.833-5.98
		c-4.724-1.998-9.482-4.319-14.521-6.777c-15.319-7.473-32.683-15.943-52.36-15.943c-19.679,0-37.043,8.471-52.362,15.944
		c-5.038,2.458-9.796,4.778-14.519,6.776c-5.027,2.126-10.275,3.998-15.832,5.979C110.001,62.122,93.43,68.032,80.731,80.73
		c-12.699,12.698-18.609,29.271-24.325,45.298c-1.98,5.556-3.853,10.804-5.979,15.831c-1.998,4.723-4.319,9.482-6.776,14.52
		c-7.474,15.319-15.944,32.683-15.944,52.361c0,19.678,8.471,37.041,15.943,52.36c2.458,5.039,4.779,9.797,6.777,14.521
		c2.126,5.027,3.998,10.274,5.979,15.831c5.716,16.027,11.626,32.599,24.325,45.298c12.698,12.699,29.271,18.608,45.298,24.324
		c5.556,1.981,10.804,3.853,15.83,5.979c4.722,1.998,9.479,4.319,14.517,6.776c15.32,7.474,32.685,15.945,52.364,15.945
		c19.679,0,37.042-8.471,52.362-15.944c5.038-2.457,9.796-4.778,14.519-6.776c5.027-2.126,10.275-3.998,15.831-5.979
		c16.026-5.715,32.599-11.625,45.298-24.323c12.697-12.699,18.607-29.271,24.322-45.297c1.981-5.557,3.854-10.805,5.979-15.831
		c1.997-4.723,4.318-9.48,6.775-14.518c7.475-15.32,15.945-32.684,15.945-52.363C389.772,189.06,381.301,171.696,373.827,156.375z
		 M361.245,254.965c-2.431,4.982-4.943,10.133-7.088,15.203c-2.283,5.398-4.311,11.083-6.271,16.582
		c-5.194,14.567-10.566,29.63-21.035,40.1c-10.471,10.47-25.533,15.841-40.101,21.036c-5.498,1.961-11.185,3.988-16.582,6.271
		c-5.069,2.145-10.222,4.658-15.203,7.088c-14.641,7.142-29.779,14.527-46.225,14.527c-16.447,0-31.586-7.385-46.227-14.527
		c-4.981-2.43-10.132-4.943-15.201-7.087c-5.397-2.283-11.083-4.31-16.581-6.271c-14.567-5.195-29.631-10.566-40.101-21.037
		c-10.471-10.47-15.843-25.534-21.037-40.101c-1.961-5.498-3.988-11.184-6.271-16.581c-2.145-5.071-4.658-10.223-7.089-15.206
		c-7.142-14.639-14.526-29.777-14.526-46.222c0-16.445,7.385-31.583,14.526-46.223c2.431-4.982,4.944-10.135,7.089-15.205
		c2.283-5.398,4.311-11.083,6.271-16.582C74.788,116.163,80.16,101.1,90.631,90.63c10.47-10.47,25.532-15.842,40.099-21.037
		c5.499-1.961,11.185-3.988,16.583-6.271c5.069-2.145,10.222-4.658,15.203-7.088c14.64-7.142,29.778-14.527,46.225-14.527
		c16.445,0,31.583,7.385,46.223,14.526c4.982,2.431,10.135,4.944,15.205,7.088c5.398,2.284,11.084,4.312,16.584,6.272
		c14.566,5.195,29.629,10.566,40.098,21.036c10.47,10.47,15.842,25.533,21.036,40.1c1.961,5.499,3.988,11.184,6.271,16.583
		c2.145,5.069,4.657,10.22,7.087,15.201c7.143,14.64,14.528,29.779,14.528,46.226C375.772,225.186,368.387,240.325,361.245,254.965z
		"/>
	<path d="M208.74,142.003c-36.799,0-66.737,29.938-66.737,66.737s29.938,66.737,66.737,66.737s66.736-29.938,66.736-66.737
		S245.539,142.003,208.74,142.003z M208.74,261.477c-29.079,0-52.737-23.658-52.737-52.737s23.658-52.737,52.737-52.737
		s52.736,23.658,52.736,52.737S237.819,261.477,208.74,261.477z"/>
	<path d="M200.115,102.776c1.791,0,3.583-0.684,4.95-2.05l17.249-17.249c2.733-2.733,2.733-7.166,0-9.899
		c-2.734-2.733-7.166-2.733-9.9,0l-17.249,17.249c-2.733,2.733-2.733,7.166,0,9.899
		C196.532,102.093,198.324,102.776,200.115,102.776z"/>
	<path d="M212.414,316.753l-17.249,17.25c-2.733,2.734-2.733,7.166,0.001,9.899c1.366,1.367,3.158,2.05,4.949,2.05
		s3.583-0.684,4.95-2.05l17.249-17.25c2.733-2.734,2.733-7.166-0.001-9.899C219.581,314.02,215.148,314.02,212.414,316.753z"/>
	<path d="M89.984,195.166l-17.25,17.249C70,215.148,70,219.58,72.733,222.314c1.367,1.367,3.158,2.05,4.95,2.05
		c1.791,0,3.583-0.684,4.949-2.05l17.25-17.249c2.734-2.733,2.734-7.166,0.001-9.899C97.151,192.433,92.719,192.432,89.984,195.166z
		"/>
	<path d="M334.846,195.166l-17.249,17.249c-2.733,2.733-2.733,7.166,0,9.899c1.367,1.367,3.159,2.05,4.95,2.05
		s3.583-0.684,4.95-2.05l17.249-17.249c2.733-2.733,2.733-7.166,0-9.899C342.012,192.432,337.58,192.432,334.846,195.166z"/>
	<path d="M134.043,152.605c1.367,1.367,3.159,2.05,4.95,2.05s3.583-0.684,4.95-2.05c2.733-2.733,2.733-7.166,0-9.899l-17.249-17.249
		c-2.734-2.733-7.166-2.733-9.9,0c-2.733,2.733-2.733,7.166,0,9.899L134.043,152.605z"/>
	<path d="M283.437,125.457c-2.734-2.733-7.166-2.733-9.9,0c-2.733,2.733-2.733,7.166,0,9.899l17.249,17.249
		c1.367,1.367,3.159,2.05,4.95,2.05s3.583-0.684,4.95-2.05c2.733-2.733,2.733-7.166,0-9.899L283.437,125.457z"/>
	<path d="M126.694,279.574c-2.734-2.733-7.166-2.733-9.9,0c-2.733,2.733-2.733,7.166,0,9.899l17.249,17.249
		c1.367,1.367,3.159,2.05,4.95,2.05s3.583-0.684,4.95-2.05c2.733-2.733,2.733-7.166,0-9.899L126.694,279.574z"/>
	<path d="M283.437,279.574c-2.734-2.733-7.166-2.733-9.9,0c-2.733,2.733-2.733,7.166,0,9.899l17.249,17.249
		c1.367,1.367,3.159,2.05,4.95,2.05s3.583-0.684,4.95-2.05c2.733-2.733,2.733-7.166,0-9.899L283.437,279.574z"/>
</g>
<g>
</g>
<g>
</g>
<g>
</g>
<g>
</g>
<g>
</g>
<g>
</g>
<g>
</g>
<g>
</g>
<g>
</g>
<g>
</g>
<g>
</g>
<g>
</g>
<g>
</g>
<g>
</g>
<g>
</g>
</svg>
