<svg version="1.1" xmlns="http://www.w3.org/2000/svg" xmlns:xlink="http://www.w3.org/1999/xlink" width="417.479" height="417.48" viewBox="0,0,417.479,417.48"><g transform="translate(-31.2605,28.7395)"><g data-paper-data="{&quot;isPaintingLayer&quot;:true}" fill-rule="nonzero" stroke="none" stroke-linecap="butt" stroke-linejoin="miter" stroke-miterlimit="10" stroke-dasharray="" stroke-dashoffset="0" style="mix-blend-mode: normal"><g><path d="M448.7395,180.0005c0,115.1 -93.64,208.74 -208.739,208.74c-115.099,0 -208.74,-93.64 -208.74,-208.74c0,-115.1 93.641,-208.74 208.74,-208.74c115.1,0 208.739,93.64 208.739,208.74zM434.7395,180.0005c0,-107.38 -87.359,-194.74 -194.739,-194.74c-107.38,0 -194.74,87.36 -194.74,194.74c0,107.38 87.36,194.739 194.74,194.739c107.38,0 194.739,-87.359 194.739,-194.739z" fill="#000000" stroke-width="1"/><path d="M240.0005,374.7895c-107.38,0 -194.79,-87.409 -194.79,-194.789c0,-107.38 87.41,-194.79 194.79,-194.79c107.38,0 194.789,87.41 194.789,194.79c0,107.38 -87.409,194.789 -194.789,194.789z" data-paper-data="{&quot;noHover&quot;:false,&quot;origItem&quot;:[&quot;Path&quot;,{&quot;applyMatrix&quot;:true,&quot;segments&quot;:[[[434.7395,180.0005],[0,107.38],[0,-107.38]],[[240.0005,-14.7395],[107.38,0],[-107.38,0]],[[45.2605,180.0005],[0,-107.38],[0,107.38]],[[240.0005,374.7395],[-107.38,0],[107.38,0]]],&quot;closed&quot;:true,&quot;fillColor&quot;:[0,0,0,1]}]}" fill="#ffd197" stroke-width="0.5"/><path d="M421.0315,180.0035c0,19.679 -8.47,37.043 -15.945,52.363c-2.457,5.038 -4.778,9.795 -6.775,14.518c-2.125,5.026 -3.998,10.274 -5.979,15.831c-5.715,16.026 -11.625,32.598 -24.322,45.297c-12.699,12.698 -29.272,18.608 -45.298,24.323c-5.556,1.981 -10.804,3.853 -15.831,5.979c-4.723,1.998 -9.481,4.319 -14.519,6.776c-15.32,7.473 -32.683,15.944 -52.362,15.944c-19.679,0 -37.044,-8.471 -52.364,-15.945c-5.038,-2.457 -9.795,-4.778 -14.517,-6.776c-5.026,-2.126 -10.274,-3.998 -15.83,-5.979c-16.027,-5.716 -32.6,-11.625 -45.298,-24.324c-12.699,-12.699 -18.609,-29.271 -24.325,-45.298c-1.981,-5.557 -3.853,-10.804 -5.979,-15.831c-1.998,-4.724 -4.319,-9.482 -6.777,-14.521c-7.472,-15.319 -15.943,-32.682 -15.943,-52.36c0,-19.678 8.47,-37.042 15.944,-52.361c2.457,-5.038 4.778,-9.797 6.776,-14.52c2.126,-5.027 3.999,-10.275 5.979,-15.831c5.716,-16.027 11.626,-32.6 24.325,-45.298c12.699,-12.698 29.27,-18.608 45.297,-24.324c5.557,-1.981 10.805,-3.853 15.832,-5.979c4.723,-1.998 9.481,-4.318 14.519,-6.776c15.319,-7.473 32.683,-15.944 52.362,-15.944c19.677,0 37.041,8.47 52.36,15.943c5.039,2.458 9.797,4.779 14.521,6.777c5.027,2.127 10.276,3.999 15.833,5.98c16.025,5.715 32.598,11.625 45.296,24.323c12.697,12.698 18.607,29.271 24.322,45.297c1.981,5.557 3.853,10.805 5.979,15.832c1.997,4.722 4.318,9.479 6.775,14.516c7.474,15.321 15.945,32.685 15.944,52.368zM407.0335,179.9995c0,-16.447 -7.385,-31.586 -14.528,-46.226c-2.43,-4.981 -4.942,-10.132 -7.087,-15.201c-2.283,-5.399 -4.31,-11.084 -6.271,-16.583c-5.194,-14.567 -10.566,-29.63 -21.036,-40.1c-10.469,-10.47 -25.532,-15.841 -40.098,-21.036c-5.5,-1.96 -11.186,-3.988 -16.584,-6.272c-5.07,-2.144 -10.223,-4.657 -15.205,-7.088c-14.64,-7.141 -29.778,-14.526 -46.223,-14.526c-16.447,0 -31.585,7.385 -46.225,14.527c-4.981,2.43 -10.134,4.943 -15.203,7.088c-5.398,2.283 -11.084,4.31 -16.583,6.271c-14.567,5.195 -29.629,10.567 -40.099,21.037c-10.471,10.47 -15.843,25.533 -21.038,40.1c-1.96,5.499 -3.988,11.184 -6.271,16.582c-2.145,5.07 -4.658,10.223 -7.089,15.205c-7.141,14.64 -14.526,29.778 -14.526,46.223c0,16.445 7.384,31.583 14.526,46.222c2.431,4.983 4.944,10.135 7.089,15.206c2.283,5.397 4.31,11.083 6.271,16.581c5.194,14.567 10.566,29.631 21.037,40.101c10.47,10.471 25.534,15.842 40.101,21.037c5.498,1.961 11.184,3.988 16.581,6.271c5.069,2.144 10.22,4.657 15.201,7.087c14.641,7.142 29.78,14.527 46.227,14.527c16.446,0 31.584,-7.385 46.225,-14.527c4.981,-2.43 10.134,-4.943 15.203,-7.088c5.397,-2.283 11.084,-4.31 16.582,-6.271c14.568,-5.195 29.63,-10.566 40.101,-21.036c10.469,-10.47 15.841,-25.533 21.035,-40.1c1.96,-5.499 3.988,-11.184 6.271,-16.582c2.145,-5.07 4.657,-10.221 7.088,-15.203c7.142,-14.64 14.527,-29.779 14.528,-46.226z" fill="#000000" stroke-width="1"/><path d="M392.55335,226.24c-2.431,4.982 -4.94479,10.13795 -7.08979,15.20795c-2.283,5.398 -4.31345,11.08799 -6.27345,16.58699c-5.194,14.567 -10.57426,29.6409 -21.04326,40.1109c-10.471,10.47 -25.5439,15.84926 -40.1119,21.04426c-5.498,1.961 -11.18999,3.99045 -16.58699,6.27345c-5.069,2.145 -10.22695,4.65979 -15.20795,7.08979c-14.641,7.142 -29.7935,14.52915 -46.2395,14.52915c-16.447,0 -31.6005,-7.38715 -46.2415,-14.52915c-4.981,-2.43 -10.13695,-4.94479 -15.20595,-7.08879c-5.397,-2.283 -11.08799,-4.31245 -16.58599,-6.27345c-14.567,-5.195 -29.6419,-10.57426 -40.1119,-21.04526c-10.471,-10.47 -15.85126,-25.5449 -21.04526,-40.1119c-1.961,-5.498 -3.99045,-11.18899 -6.27345,-16.58599c-2.145,-5.071 -4.65979,-10.22795 -7.09079,-15.21095c-7.142,-14.639 -14.52815,-29.7915 -14.52815,-46.2365c0,-16.445 7.38715,-31.5975 14.52815,-46.2375c2.431,-4.982 4.94579,-10.13995 7.09079,-15.20995c2.283,-5.398 4.31345,-11.08799 6.27345,-16.58699c5.195,-14.567 10.57526,-29.6409 21.04626,-40.1109c10.47,-10.47 25.5429,-15.85026 40.1099,-21.04526c5.499,-1.961 11.18999,-3.99045 16.58799,-6.27345c5.069,-2.145 10.22695,-4.65979 15.20795,-7.08979c14.64,-7.142 29.7925,-14.52915 46.2395,-14.52915c16.445,0 31.5975,7.38715 46.2375,14.52815c4.982,2.431 10.13995,4.94579 15.20995,7.08979c5.398,2.284 11.089,4.31445 16.589,6.27445c14.566,5.195 29.6399,10.57426 40.1089,21.04426c10.47,10.47 15.85026,25.5439 21.04426,40.1109c1.961,5.499 3.99045,11.18899 6.27345,16.58799c2.145,5.069 4.65879,10.22495 7.08879,15.20595c7.143,14.64 14.53015,29.7935 14.53015,46.2405c-0.001,16.447 -7.38815,31.6005 -14.53015,46.2405z" data-paper-data="{&quot;noHover&quot;:false,&quot;origItem&quot;:[&quot;Path&quot;,{&quot;applyMatrix&quot;:true,&quot;segments&quot;:[[[407.0335,179.9995],[-0.001,16.447],[0,-16.447]],[[392.5055,133.7735],[7.143,14.64],[-2.43,-4.981]],[[385.4185,118.5725],[2.145,5.069],[-2.283,-5.399]],[[379.1475,101.9895],[1.961,5.499],[-5.194,-14.567]],[[358.1115,61.8895],[10.47,10.47],[-10.469,-10.47]],[[318.0135,40.8535],[14.566,5.195],[-5.5,-1.96]],[[301.4295,34.5815],[5.398,2.284],[-5.07,-2.144]],[[286.2245,27.4935],[4.982,2.431],[-14.64,-7.141]],[[240.0015,12.9675],[16.445,0],[-16.447,0]],[[193.7765,27.4945],[14.64,-7.142],[-4.981,2.43]],[[178.5735,34.5825],[5.069,-2.145],[-5.398,2.283]],[[161.9905,40.8535],[5.499,-1.961],[-14.567,5.195]],[[121.8915,61.8905],[10.47,-10.47],[-10.471,10.47]],[[100.8535,101.9905],[5.195,-14.567],[-1.96,5.499]],[[94.5825,118.5725],[2.283,-5.398],[-2.145,5.07]],[[87.4935,133.7775],[2.431,-4.982],[-7.141,14.64]],[[72.9675,180.0005],[0,-16.445],[0,16.445]],[[87.4935,226.2225],[-7.142,-14.639],[2.431,4.983]],[[94.5825,241.4285],[-2.145,-5.071],[2.283,5.397]],[[100.8535,258.0095],[-1.961,-5.498],[5.194,14.567]],[[121.8905,298.1105],[-10.471,-10.47],[10.47,10.471]],[[161.9915,319.1475],[-14.567,-5.195],[5.498,1.961]],[[178.5725,325.4185],[-5.397,-2.283],[5.069,2.144]],[[193.7735,332.5055],[-4.981,-2.43],[14.641,7.142]],[[240.0005,347.0325],[-16.447,0],[16.446,0]],[[286.2255,332.5055],[-14.641,7.142],[4.981,-2.43]],[[301.4285,325.4175],[-5.069,2.145],[5.397,-2.283]],[[318.0105,319.1465],[-5.498,1.961],[14.568,-5.195]],[[358.1115,298.1105],[-10.471,10.47],[10.469,-10.47]],[[379.1465,258.0105],[-5.194,14.567],[1.96,-5.499]],[[385.4175,241.4285],[-2.283,5.398],[2.145,-5.07]],[[392.5055,226.2255],[-2.431,4.982],[7.142,-14.64]]],&quot;closed&quot;:true,&quot;fillColor&quot;:[0,0,0,1]}]}" fill="#ff96fc" stroke-width="0.5"/><path d="M306.7365,180.0005c0,36.799 -29.937,66.737 -66.736,66.737c-36.799,0 -66.737,-29.938 -66.737,-66.737c0,-36.799 29.938,-66.737 66.737,-66.737c36.799,0 66.736,29.938 66.736,66.737zM292.7365,180.0005c0,-29.079 -23.657,-52.737 -52.736,-52.737c-29.079,0 -52.737,23.658 -52.737,52.737c0,29.079 23.658,52.737 52.737,52.737c29.079,0 52.736,-23.658 52.736,-52.737z" fill="#000000" stroke-width="1"/><path d="M240.0005,232.7875c-29.079,0 -52.787,-23.708 -52.787,-52.787c0,-29.079 23.708,-52.787 52.787,-52.787c29.079,0 52.786,23.708 52.786,52.787c0,29.079 -23.707,52.787 -52.786,52.787z" data-paper-data="{&quot;noHover&quot;:false,&quot;origItem&quot;:[&quot;Path&quot;,{&quot;applyMatrix&quot;:true,&quot;segments&quot;:[[[292.7365,180.0005],[0,29.079],[0,-29.079]],[[240.0005,127.2635],[29.079,0],[-29.079,0]],[[187.2635,180.0005],[0,-29.079],[0,29.079]],[[240.0005,232.7375],[-29.079,0],[29.079,0]]],&quot;closed&quot;:true,&quot;fillColor&quot;:[0,0,0,1]}]}" fill="#ffffff" stroke-width="0.5"/><path d="M226.4255,71.9865c-2.733,-2.733 -2.733,-7.166 0,-9.899l17.249,-17.249c2.734,-2.733 7.166,-2.733 9.9,0c2.733,2.733 2.733,7.166 0,9.899l-17.249,17.249c-1.367,1.366 -3.159,2.05 -4.95,2.05c-1.791,0 -3.583,-0.683 -4.95,-2.05z" fill="#000000" stroke-width="1"/><path d="M253.5735,288.0135c2.734,2.733 2.734,7.165 0.001,9.899l-17.249,17.25c-1.367,1.366 -3.159,2.05 -4.95,2.05c-1.791,0 -3.583,-0.683 -4.949,-2.05c-2.734,-2.733 -2.734,-7.165 -0.001,-9.899l17.249,-17.25c2.734,-2.733 7.167,-2.733 9.899,0z" fill="#000000" stroke-width="1"/><path d="M131.1435,166.4265c2.733,2.733 2.733,7.166 -0.001,9.899l-17.25,17.249c-1.366,1.366 -3.158,2.05 -4.949,2.05c-1.792,0 -3.583,-0.683 -4.95,-2.05c-2.733,-2.734 -2.733,-7.166 0.001,-9.899l17.25,-17.249c2.735,-2.734 7.167,-2.733 9.899,0z" fill="#000000" stroke-width="1"/><path d="M376.0065,166.4265c2.733,2.733 2.733,7.166 0,9.899l-17.249,17.249c-1.367,1.366 -3.159,2.05 -4.95,2.05c-1.791,0 -3.583,-0.683 -4.95,-2.05c-2.733,-2.733 -2.733,-7.166 0,-9.899l17.249,-17.249c2.734,-2.734 7.166,-2.734 9.9,0z" fill="#000000" stroke-width="1"/><path d="M148.0545,106.6165c-2.733,-2.733 -2.733,-7.166 0,-9.899c2.734,-2.733 7.166,-2.733 9.9,0l17.249,17.249c2.733,2.733 2.733,7.166 0,9.899c-1.367,1.366 -3.159,2.05 -4.95,2.05c-1.791,0 -3.583,-0.683 -4.95,-2.05z" fill="#000000" stroke-width="1"/><path d="M331.9465,113.9665c2.733,2.733 2.733,7.166 0,9.899c-1.367,1.366 -3.159,2.05 -4.95,2.05c-1.791,0 -3.583,-0.683 -4.95,-2.05l-17.249,-17.249c-2.733,-2.733 -2.733,-7.166 0,-9.899c2.734,-2.733 7.166,-2.733 9.9,0z" fill="#000000" stroke-width="1"/><path d="M175.2035,268.0835c2.733,2.733 2.733,7.166 0,9.899c-1.367,1.366 -3.159,2.05 -4.95,2.05c-1.791,0 -3.583,-0.683 -4.95,-2.05l-17.249,-17.249c-2.733,-2.733 -2.733,-7.166 0,-9.899c2.734,-2.733 7.166,-2.733 9.9,0z" fill="#000000" stroke-width="1"/><path d="M331.9465,268.0835c2.733,2.733 2.733,7.166 0,9.899c-1.367,1.366 -3.159,2.05 -4.95,2.05c-1.791,0 -3.583,-0.683 -4.95,-2.05l-17.249,-17.249c-2.733,-2.733 -2.733,-7.166 0,-9.899c2.734,-2.733 7.166,-2.733 9.9,0z" fill="#000000" stroke-width="1"/></g><g fill="#000000" stroke-width="1" font-family="&quot;Helvetica Neue&quot;, Helvetica, Arial, sans-serif" font-weight="400" font-size="16" text-anchor="start"/><g fill="#000000" stroke-width="1" font-family="&quot;Helvetica Neue&quot;, Helvetica, Arial, sans-serif" font-weight="400" font-size="16" text-anchor="start"/><g fill="#000000" stroke-width="1" font-family="&quot;Helvetica Neue&quot;, Helvetica, Arial, sans-serif" font-weight="400" font-size="16" text-anchor="start"/><g fill="#000000" stroke-width="1" font-family="&quot;Helvetica Neue&quot;, Helvetica, Arial, sans-serif" font-weight="400" font-size="16" text-anchor="start"/><g fill="#000000" stroke-width="1" font-family="&quot;Helvetica Neue&quot;, Helvetica, Arial, sans-serif" font-weight="400" font-size="16" text-anchor="start"/><g fill="#000000" stroke-width="1" font-family="&quot;Helvetica Neue&quot;, Helvetica, Arial, sans-serif" font-weight="400" font-size="16" text-anchor="start"/><g fill="#000000" stroke-width="1" font-family="&quot;Helvetica Neue&quot;, Helvetica, Arial, sans-serif" font-weight="400" font-size="16" text-anchor="start"/></g></g></svg>