<?xml version="1.0" encoding="iso-8859-1"?>
<!-- Generator: Adobe Illustrator 19.0.0, SVG Export Plug-In . SVG Version: 6.00 Build 0)  -->
<svg version="1.1" id="Layer_1" xmlns="http://www.w3.org/2000/svg" xmlns:xlink="http://www.w3.org/1999/xlink" x="0px" y="0px"
	 viewBox="0 0 512.001 512.001" style="enable-background:new 0 0 512.001 512.001;" xml:space="preserve">
<g>
	<g>
		<path d="M447.146,223.014c0,0-15.052-13.569-34.115-25.281c6.396,1.542,12.939,2.423,19.336,2.423
			c33.059,0,79.63-41.992,79.63-41.992s-46.223-41.674-79.258-41.984c16.15-3.23,34.298-11.841,46.868-24.411
			C502.983,68.393,506.221,5.77,506.221,5.77s-62.622,3.238-85.999,26.614c-12.561,12.561-21.17,30.693-24.404,46.835
			C395.473,46.186,353.833,0,353.833,0s-41.992,46.571-41.992,79.629c0,6.395,0.88,12.938,2.423,19.336
			c-11.712-19.063-25.281-34.115-25.281-34.115s-41.992,46.571-41.992,79.629c0,6.395,0.88,12.938,2.422,19.336
			c-11.712-19.063-25.281-34.115-25.281-34.115s-41.992,46.571-41.992,79.629c0,7.649,1.259,15.507,3.409,23.075
			c-12.068-20.436-27.058-37.064-27.058-37.064s-41.992,46.571-41.992,79.629c0,9.661,2.001,19.657,5.285,28.974
			c-12.403-22.633-29.879-42.017-29.879-42.017s-41.992,46.571-41.992,79.629c0,26.576,15.065,55.716,30.679,66.129L4.918,483.361
			c-6.552,6.552-6.552,17.174,0,23.725c6.551,6.552,17.174,6.553,23.725,0l75.674-75.674c10.417,15.611,39.551,30.671,66.123,30.671
			c33.059,0,79.63-41.992,79.63-41.992s-19.385-17.476-42.018-29.879c9.319,3.284,19.314,5.285,28.974,5.285
			c33.059,0,79.63-41.992,79.63-41.992s-16.628-14.99-37.064-27.058c7.567,2.15,15.427,3.409,23.075,3.409
			c33.059,0,79.629-41.992,79.629-41.992s-15.052-13.569-34.115-25.281c6.397,1.542,12.94,2.423,19.336,2.423
			C400.576,265.006,447.146,223.014,447.146,223.014z M132.561,355.718c0.854-4.723,1.337-9.481,1.337-14.161
			c-0.001-6.449-1.604-13.412-4.176-20.444c5.125,8.736,11.245,15.843,17.458,19.985L132.561,355.718z M170.439,378.101
			c-4.674,0-9.426,0.48-14.144,1.333l14.607-14.607c4.144,6.211,11.248,12.326,19.98,17.45
			C183.851,379.703,176.888,378.101,170.439,378.101z M199.147,289.132c0.854-4.723,1.335-9.481,1.335-14.161
			c0-4.844-0.907-9.979-2.445-15.214c4.518,6.772,9.619,12.258,14.782,15.702L199.147,289.132z M237.025,311.513
			c-4.674,0-9.426,0.48-14.144,1.333l13.662-13.662c3.444,5.161,8.927,10.258,15.696,14.773
			C247.004,312.42,241.869,311.513,237.025,311.513z M264.787,223.491c0.854-4.723,1.337-9.481,1.337-14.161
			c0-3.864-0.579-7.915-1.594-12.053c4.096,5.684,8.593,10.3,13.139,13.332L264.787,223.491z M302.666,245.873
			c-4.674,0-9.426,0.48-14.144,1.333l12.871-12.871c3.032,4.544,7.646,9.038,13.326,13.13
			C310.582,246.452,306.532,245.873,302.666,245.873z M329.638,158.64c0.854-4.723,1.335-9.481,1.335-14.161
			c0-3.864-0.579-7.915-1.594-12.053c4.097,5.684,8.594,10.3,13.141,13.332L329.638,158.64z M366.244,169.485
			c3.032,4.544,7.646,9.038,13.326,13.13c-4.138-1.013-8.188-1.593-12.053-1.593c-4.674,0-9.426,0.48-14.144,1.333L366.244,169.485z
			"/>
	</g>
</g>
<g>
</g>
<g>
</g>
<g>
</g>
<g>
</g>
<g>
</g>
<g>
</g>
<g>
</g>
<g>
</g>
<g>
</g>
<g>
</g>
<g>
</g>
<g>
</g>
<g>
</g>
<g>
</g>
<g>
</g>
</svg>
